<svg width="32" height="31" viewBox="0 0 32 31" fill="none" xmlns="http://www.w3.org/2000/svg">
<path d="M25.9567 25.4887C23.5791 27.7128 20.481 29.0726 17.1872 29.3376C13.8934 29.6027 10.6062 28.7568 7.88236 26.9432C5.15851 25.1296 3.1654 22.4597 2.24055 19.3857C1.31571 16.3118 1.51596 13.0226 2.8074 10.0753C4.09885 7.12791 6.40211 4.70353 9.32714 3.21268C12.2522 1.72183 15.6192 1.25613 18.858 1.89446C22.0968 2.53278 25.0084 4.2359 27.0996 6.71538C29.1909 9.19486 30.3333 12.2983 30.3333 15.5002V15.5002C30.212 21.0389 24.1013 21.9676 23.5 16.5697L22.6053 10.8541L15.144 20.4234L14.2493 10.1159L4.276 23.4846" stroke="white" stroke-width="2" stroke-linecap="round" stroke-linejoin="round"/>
</svg>
