<svg width="32" height="31" viewBox="0 0 32 31" fill="none" xmlns="http://www.w3.org/2000/svg">
<path d="M18.18 2.43704C18.299 2.43704 18.3675 2.44189 18.3675 2.44189H20.979L20.9655 5.34814H18.3715C16.944 5.34814 16.977 6.52901 16.977 6.52901V11.1364H22.028L21.323 14.0388H16.9605V28.5632H13.9635L13.9615 14.0388H9.97999L9.97199 11.1364H13.963V6.62007C13.9634 2.68211 17.3395 2.43701 18.18 2.43701V2.43704ZM20.979 2.44186H20.984H20.979ZM18.18 0.499512C17.461 0.499512 16.0559 0.614823 14.7249 1.39176C13.4649 2.12607 11.9634 3.63003 11.9634 6.61962V9.1984H9.97243C9.44093 9.1984 8.93143 9.40378 8.55543 9.76806C8.36965 9.94875 8.22252 10.1632 8.12249 10.3991C8.02245 10.635 7.97146 10.8877 7.97246 11.1427L7.98046 14.0451C7.98446 15.1122 8.87896 15.9758 9.98046 15.9758H11.962L11.964 28.5628C11.964 29.6328 12.8595 30.5003 13.964 30.5003H16.961C18.0655 30.5003 18.961 29.6328 18.961 28.5628V15.9758H21.3235C22.211 15.9758 22.9925 15.4091 23.2425 14.5842L23.9475 11.6818C24.125 11.0962 24.0069 10.4632 23.629 9.97537C23.443 9.73416 23.2014 9.53833 22.9236 9.40345C22.6457 9.26857 22.3392 9.19837 22.0284 9.19843H18.9774V7.2866L20.9659 7.28564C22.0664 7.28564 22.9609 6.42393 22.9659 5.35685L22.9794 2.54893C22.9814 2.51328 22.9824 2.47759 22.9824 2.44189C22.9824 1.3719 22.0889 0.504386 20.9845 0.504386H18.424C18.3665 0.501479 18.2835 0.499542 18.18 0.499512Z" fill="white"/>
</svg>
