<svg width="32" height="31" viewBox="0 0 32 31" fill="none" xmlns="http://www.w3.org/2000/svg">
<path d="M22.0938 10.8984C19.9062 8.62793 18.0938 8.26465 16.3438 8.23438H16.2812C12.3438 8.23438 8.625 11.3828 8.625 15.7422C8.625 20.3135 12.875 22.9775 16.25 22.9775H16.2812C18.1562 22.9775 20.4375 22.6445 22.4375 19.8594H14.75V12.1396L31.0938 12.2002C31.25 12.9873 31.5312 14.9551 31.5312 15.9844C31.5312 24.7334 25.4688 30.9697 16.125 30.9697C7.25 30.9697 0.03125 24.1279 0.03125 15.5908C0.03125 7.05371 7.25 0.242188 16.125 0.242188C20.4688 0.242188 25.125 1.90723 28.0625 5.69141L22.0938 10.8984ZM16.25 13.7139V18.376H24.4688C24.0938 20.3438 21.9375 24.2793 16.25 24.2793C11.2812 24.2793 7.28125 20.3438 7.28125 15.6514C7.28125 10.9287 11.375 6.96289 16.25 6.96289C19.0938 6.96289 21 8.17383 22.0312 9.14258L25.9688 5.54004C23.4688 3.26953 20.1875 1.90723 16.25 1.90723C8.25 1.90723 1.75 7.99219 1.75 15.6514C1.75 23.25 8.25 29.3652 16.25 29.3652C24.6875 29.3652 30.1562 23.7646 30.1562 15.9844C30.1562 15.1064 30.0938 14.4102 29.9688 13.7139H16.25Z" fill="white"/>
</svg>
