<svg width="32" height="31" viewBox="0 0 32 31" fill="none" xmlns="http://www.w3.org/2000/svg">
<path d="M15.9688 0.121094C20.2812 0.121094 20.8125 0.151367 22.5 0.211914C24.1562 0.272461 25.3125 0.544922 26.3438 0.938477C27.4062 1.33203 28.2812 1.84668 29.1562 2.69434C30.0312 3.54199 30.5625 4.38965 30.9688 5.41895C31.375 6.41797 31.6562 7.53809 31.7188 9.14258C31.7812 10.7773 31.8125 11.292 31.8125 15.4697C31.8125 19.6475 31.7812 20.1621 31.7188 21.7969C31.6562 23.4014 31.375 24.5215 30.9688 25.5205C30.5625 26.5498 30.0312 27.3975 29.1562 28.2451C28.2812 29.0928 27.4062 29.6074 26.3438 30.001C25.3125 30.3945 24.1562 30.667 22.5 30.7275C20.8125 30.7881 20.2812 30.8184 15.9688 30.8184C11.6562 30.8184 11.125 30.7881 9.4375 30.7275C7.78125 30.667 6.625 30.3945 5.59375 30.001C4.53125 29.6074 3.65625 29.0928 2.78125 28.2451C1.90625 27.3975 1.375 26.5498 0.96875 25.5205C0.5625 24.5215 0.28125 23.4014 0.21875 21.7969C0.15625 20.1621 0.125 19.6475 0.125 15.4697C0.125 11.292 0.15625 10.7773 0.21875 9.14258C0.28125 7.53809 0.5625 6.41797 0.96875 5.41895C1.375 4.38965 1.90625 3.54199 2.78125 2.69434C3.65625 1.84668 4.53125 1.33203 5.59375 0.938477C6.625 0.544922 7.78125 0.272461 9.4375 0.211914C11.125 0.151367 11.6562 0.121094 15.9688 0.121094ZM15.9688 2.11914C11.4688 2.11914 10.9375 2.14941 9.1875 2.20996C7.5625 2.27051 6.65625 2.57324 6.0625 2.78516C4.53125 3.39062 3.5 4.38965 2.875 5.87305C2.65625 6.44824 2.34375 7.32617 2.28125 8.90039C2.21875 10.5957 2.1875 11.1104 2.1875 15.4697C2.1875 19.8291 2.21875 20.3438 2.28125 22.0391C2.34375 23.6133 2.65625 24.4912 2.875 25.0664C3.5 26.5498 4.53125 27.5488 6.0625 28.1543C6.65625 28.3662 7.5625 28.6689 9.1875 28.7295C10.9375 28.79 11.4688 28.8203 15.9688 28.8203C20.4688 28.8203 21 28.79 22.75 28.7295C24.375 28.6689 25.2812 28.3662 25.875 28.1543C27.4062 27.5488 28.4375 26.5498 29.0625 25.0664C29.2812 24.4912 29.5938 23.6133 29.6562 22.0391C29.7188 20.3438 29.75 19.8291 29.75 15.4697C29.75 11.1104 29.7188 10.5957 29.6562 8.90039C29.5938 7.32617 29.2812 6.44824 29.0625 5.87305C28.4375 4.38965 27.4062 3.39062 25.875 2.78516C25.2812 2.57324 24.375 2.27051 22.75 2.20996C21 2.14941 20.4688 2.11914 15.9688 2.11914ZM15.9688 21.6152C19.4688 21.6152 22.3125 18.8604 22.3125 15.4697C22.3125 12.0791 19.4688 9.32422 15.9688 9.32422C12.4688 9.32422 9.625 12.0791 9.625 15.4697C9.625 18.8604 12.4688 21.6152 15.9688 21.6152ZM15.9688 7.59863C20.4688 7.59863 24.0938 11.1104 24.0938 15.4697C24.0938 19.8291 20.4688 23.3408 15.9688 23.3408C11.4688 23.3408 7.84375 19.8291 7.84375 15.4697C7.84375 11.1104 11.4688 7.59863 15.9688 7.59863ZM26.3438 7.2959C26.3438 8.3252 25.4688 9.1123 24.4062 9.1123C23.3438 9.1123 22.5312 8.3252 22.5312 7.2959C22.5312 6.2666 23.3438 5.41895 24.4062 5.41895C25.4688 5.41895 26.3438 6.2666 26.3438 7.2959Z" fill="white"/>
</svg>
