<svg width="31" height="31" viewBox="0 0 31 31" fill="none" xmlns="http://www.w3.org/2000/svg">
<g clip-path="url(#clip0_24_340)">
<path d="M30.2067 30.3468H23.909C23.4635 30.3468 23.1035 29.9868 23.1035 29.5413V19.3992C23.1035 15.9208 21.3094 15.9208 20.7175 15.9208C19.1248 15.9208 18.4474 17.1779 18.2277 17.7211C18.124 17.9652 18.0751 18.3801 18.0751 18.9599V29.5475C18.0751 29.9929 17.7151 30.353 17.2697 30.353H10.9659C10.7524 30.353 10.5449 30.2675 10.3923 30.115C10.2398 29.9625 10.1543 29.7549 10.1604 29.5413C10.1604 29.3705 10.2459 12.3632 10.1604 10.624C10.1482 10.4043 10.2275 10.1908 10.3801 10.0321C10.5327 9.87343 10.7402 9.78188 10.9659 9.78188H17.2697C17.7151 9.78188 18.0752 10.1419 18.0752 10.5874V11.0634C19.137 10.1175 20.6687 9.33638 22.951 9.33638C27.9976 9.33638 31.0122 12.8269 31.0122 18.673V29.5413C31.0122 29.9868 30.6521 30.3468 30.2067 30.3468ZM24.7145 28.7358L29.4073 28.7357V18.6729C29.4073 13.7605 27.0579 10.9473 22.9571 10.9473C20.2171 10.9473 18.8868 12.3143 18.0508 13.5652C17.9531 13.8948 17.6419 14.1389 17.2758 14.1389H17.2331C16.9401 14.1389 16.6716 13.9802 16.5313 13.7239C16.4215 13.5225 16.3971 13.2906 16.4703 13.0771V11.3867H11.7898C11.8325 14.7491 11.7898 25.6297 11.7776 28.7297H16.4642V18.9537C16.4642 18.1421 16.5496 17.5563 16.7327 17.1108C17.4406 15.3594 18.9295 14.3037 20.7114 14.3037C23.25 14.3037 24.7084 16.1589 24.7084 19.3931V28.7358H24.7146L24.7145 28.7358ZM7.4815 30.3467H1.17776C0.732284 30.3467 0.372272 29.9866 0.372272 29.5412V10.5873C0.372272 10.1418 0.732284 9.78179 1.17776 9.78179H7.4815C7.92698 9.78179 8.28699 10.1418 8.28699 10.5873V29.5412C8.28699 29.9867 7.92698 30.3467 7.4815 30.3467V30.3467ZM1.9833 28.7357H6.67599V11.3928H1.98333V28.7357L1.9833 28.7357ZM4.33267 8.80538L4.28993 8.80535C1.80626 8.80535 -3.05176e-05 7.08449 -3.05176e-05 4.71677C-3.05176e-05 2.35517 1.83678 0.634277 4.37536 0.634277C6.87122 0.634277 8.65315 2.30631 8.70198 4.69846C8.70198 7.08449 6.86517 8.80535 4.33267 8.80535V8.80538ZM4.37536 2.25142C2.72161 2.25142 1.611 3.24612 1.611 4.72292C1.611 6.17526 2.70944 7.19435 4.28996 7.19435H4.33264C5.98031 7.19435 7.09092 6.19966 7.09092 4.72289C7.0604 3.2278 5.99251 2.25142 4.37536 2.25142Z" fill="white"/>
</g>
<defs>
<clipPath id="clip0_24_340">
<rect width="31" height="31" fill="white"/>
</clipPath>
</defs>
</svg>
