<svg width="32" height="31" viewBox="0 0 32 31" fill="none" xmlns="http://www.w3.org/2000/svg">
<path d="M9.31934 22.2678C13.1776 22.2678 16.3053 19.2378 16.3053 15.5001C16.3053 11.7624 13.1776 8.73242 9.31934 8.73242C5.46108 8.73242 2.33334 11.7624 2.33334 15.5001C2.33334 19.2378 5.46108 22.2678 9.31934 22.2678Z" stroke="white" stroke-width="2" stroke-linecap="round" stroke-linejoin="round"/>
<path d="M21.5453 22.2678C23.362 22.2678 24.8347 19.2378 24.8347 15.5001C24.8347 11.7624 23.362 8.73242 21.5453 8.73242C19.7287 8.73242 18.256 11.7624 18.256 15.5001C18.256 19.2378 19.7287 22.2678 21.5453 22.2678Z" stroke="white" stroke-width="2" stroke-linecap="round" stroke-linejoin="round"/>
<path d="M28.226 22.2678C29.0217 22.2678 29.6667 19.2378 29.6667 15.5001C29.6667 11.7624 29.0217 8.73242 28.226 8.73242C27.4303 8.73242 26.7853 11.7624 26.7853 15.5001C26.7853 19.2378 27.4303 22.2678 28.226 22.2678Z" stroke="white" stroke-width="2" stroke-linecap="round" stroke-linejoin="round"/>
</svg>
