<svg width="37" height="36" viewBox="0 0 37 36" fill="none" xmlns="http://www.w3.org/2000/svg">
<path d="M32.0424 12.356C31.9043 5.80671 26.4017 1.06104 18.9436 1.06104C18.1367 1.06104 17.3153 1.11764 16.4938 1.23077C10.5186 2.03704 5.93174 6.22405 5.07395 11.6417C4.4633 15.5034 5.74269 20.1431 9.96608 21.1898L10.5767 21.3384L10.9329 20.8362C11.0565 20.6664 12.1396 19.1105 11.9651 17.8232C11.8779 17.1796 11.478 16.7836 11.2382 16.5502L11.1219 16.437C10.4604 15.4256 10.1842 13.7141 10.4604 12.2783C11.1292 8.74197 14.1604 6.17462 17.9984 5.89172C18.2674 5.87048 18.5364 5.86341 18.7981 5.86341C22.7744 5.86341 25.4639 8.1691 25.653 11.7337C25.8274 15.1781 24.7661 18.3184 22.8761 19.931L22.7526 20.0371C22.3092 20.419 21.9602 20.7231 21.2333 20.8292C21.0443 20.8575 20.8553 20.8717 20.6808 20.8717C19.227 20.8717 18.4346 19.938 18.4055 19.0186C18.3692 17.986 18.7908 16.8543 19.2415 15.652C19.794 14.1738 20.3682 12.639 20.1574 11.0547C19.932 9.41384 18.3983 8.13366 16.6609 8.13366C16.2175 8.13366 15.7668 8.21853 15.3307 8.37413C12.1758 9.54111 11.7106 13.5584 12.8664 16.7977C12.5902 18.0779 12.234 19.3439 11.856 20.6806C10.7293 24.705 9.559 28.8708 10.4458 33.7509L10.6421 34.833L11.6816 34.4157C12.692 34.0055 13.2371 33.1002 13.6878 32.3505C13.7751 32.209 13.8623 32.0676 13.9422 31.9332C15.4179 29.677 16.2465 26.9823 16.8862 24.3654C18.4781 25.5324 20.1065 25.9073 22.4253 25.6598C28.8367 24.9807 32.166 18.2971 32.0424 12.356V12.356ZM14.6911 16.9181L14.7422 16.6706L14.6477 16.4301C13.6591 13.891 13.8844 10.8002 15.9707 10.0293C16.1961 9.94446 16.4286 9.90202 16.654 9.90202C17.5045 9.90202 18.2532 10.5102 18.355 11.2882C18.5149 12.4482 18.0351 13.7071 17.5336 15.0509C17.0465 16.3522 16.5377 17.6961 16.5886 19.0752C16.6467 20.801 18.1006 22.6328 20.6739 22.6328C20.9428 22.6328 21.219 22.6116 21.5025 22.5692C22.7601 22.3853 23.4579 21.7841 23.9594 21.3456L24.0758 21.2466C26.3655 19.2874 27.6666 15.6026 27.4631 11.6348C27.216 6.83949 23.2834 3.7275 17.8679 4.12357C13.1938 4.47017 9.50831 7.61043 8.68687 11.946C8.33067 13.8132 8.70136 15.9986 9.6028 17.3779C9.71181 17.5405 9.83538 17.6678 9.9517 17.781C10.0317 17.8659 10.1625 17.9861 10.1698 18.0427C10.1988 18.2832 10.0462 18.7783 9.78451 19.2663C7.15306 18.1771 6.41162 14.7327 6.8623 11.8965C7.58922 7.25687 11.5582 3.66393 16.7411 2.96369C17.4825 2.86469 18.224 2.81516 18.9436 2.81516C25.3695 2.81516 30.1163 6.83953 30.2253 12.3845C30.3344 17.5476 27.5648 23.333 22.2365 23.9059C21.8731 23.9413 21.5314 23.9625 21.2116 23.9625C19.278 23.9625 18.2385 23.3118 16.9882 22.1024L15.8251 20.9778L15.4689 22.5338C14.7856 25.4902 13.9933 28.5809 12.4231 30.9856C12.3213 31.1412 12.2195 31.311 12.1177 31.4878C12.0814 31.5515 12.045 31.6151 12.0014 31.6717C11.7107 27.8949 12.6702 24.4717 13.6079 21.1405C13.9932 19.7613 14.4003 18.3255 14.6911 16.9181L14.6911 16.9181Z" fill="white"/>
</svg>
