<svg width="48" height="48" viewBox="0 0 48 48" fill="none" xmlns="http://www.w3.org/2000/svg">
    <path d="M30.375 24C29.7075 24 29.055 24.1979 28.5 24.5688C27.9449 24.9396 27.5124 25.4667 27.2569 26.0834C27.0015 26.7001 26.9346 27.3787 27.0649 28.0334C27.1951 28.6881 27.5165 29.2895 27.9885 29.7615C28.4605 30.2335 29.0619 30.5549 29.7166 30.6851C30.3713 30.8154 31.0499 30.7485 31.6666 30.4931C32.2833 30.2376 32.8104 29.8051 33.1812 29.25C33.5521 28.695 33.75 28.0425 33.75 27.375C33.75 26.4799 33.3944 25.6215 32.7615 24.9885C32.1286 24.3556 31.2701 24 30.375 24Z" fill="white" />
    <path d="M18.9168 30.493C20.6389 29.7797 21.4567 27.8054 20.7433 26.0833C20.03 24.3612 18.0558 23.5435 16.3337 24.2568C14.6116 24.9701 13.7939 26.9444 14.5072 28.6664C15.2205 30.3885 17.1947 31.2063 18.9168 30.493Z" fill="white" />
    <path d="M46.5 23.7909C46.5 20.8669 44.1431 18.4884 41.25 18.4884C40.0306 18.4883 38.8495 18.9148 37.9116 19.6941C34.6303 17.4656 30.3384 16.1016 25.7569 15.825L27.8194 8.41875L34.0453 9.65625C34.2234 12.1387 36.2953 14.1084 38.7937 14.1084C41.4187 14.1084 43.5544 11.9522 43.5544 9.3075C43.5544 6.66281 41.3437 4.5 38.7187 4.5C36.8878 4.5 35.3147 5.54906 34.5141 7.19719L26.0766 5.52L23.1609 15.7875L22.7269 15.7997C17.9803 16.0069 13.5075 17.3869 10.0922 19.6931C9.15444 18.911 7.97106 18.4845 6.74999 18.4884C3.85405 18.4884 1.49999 20.8669 1.49999 23.7909C1.49586 24.7216 1.73733 25.637 2.20003 26.4445C2.66273 27.252 3.33028 27.9232 4.1353 28.3903C4.07924 28.8048 4.05137 29.2227 4.05187 29.6409C4.06218 33.3666 6.1603 36.8597 9.95812 39.4847C13.7212 42.0722 18.7041 43.5 24 43.5C29.2959 43.5 34.29 42.0722 38.0466 39.4791C41.8462 36.8541 43.9387 33.36 43.9387 29.6297C43.9379 29.2128 43.9116 28.7964 43.86 28.3828C44.6655 27.9178 45.3338 27.2482 45.7974 26.4419C46.261 25.6355 46.5034 24.721 46.5 23.7909V23.7909ZM38.8125 7.03125C39.2575 7.03125 39.6925 7.16321 40.0625 7.41044C40.4325 7.65768 40.7209 8.00908 40.8912 8.42021C41.0615 8.83135 41.1061 9.28375 41.0193 9.7202C40.9324 10.1567 40.7181 10.5576 40.4035 10.8722C40.0888 11.1869 39.6879 11.4012 39.2514 11.488C38.815 11.5748 38.3626 11.5303 37.9515 11.36C37.5403 11.1897 37.1889 10.9013 36.9417 10.5313C36.6945 10.1613 36.5625 9.72626 36.5625 9.28125C36.5625 8.68451 36.7995 8.11222 37.2215 7.69026C37.6435 7.2683 38.2158 7.03125 38.8125 7.03125ZM4.00499 23.7909C4.00225 23.0561 4.29109 22.3502 4.80815 21.828C5.32521 21.3058 6.02828 21.0101 6.76312 21.0056C7.20866 21.0066 7.64714 21.117 8.03999 21.3272C6.58687 22.6781 5.5153 24.1781 4.84593 25.7972C4.58053 25.5346 4.36962 25.2223 4.2253 24.878C4.08099 24.5337 4.00612 24.1643 4.00499 23.7909V23.7909ZM36.6394 37.4062C33.2887 39.7116 28.8019 40.9819 24.0047 40.9819C19.2075 40.9819 14.7187 39.7134 11.3709 37.4062C8.27718 35.2697 6.56718 32.5069 6.56718 29.625C6.5689 28.7517 6.72604 27.8857 7.03124 27.0675C7.56374 25.5919 8.54624 24.21 9.95155 22.9622C10.3906 22.5743 10.8527 22.2134 11.3353 21.8812L11.3634 21.8616L11.3859 21.8456C14.7347 19.5469 19.2159 18.2831 24.0056 18.2831C28.7953 18.2831 33.2775 19.5497 36.6262 21.8456L36.6478 21.8616L36.6797 21.885C37.1616 22.2159 37.6234 22.5753 38.0625 22.9612C39.4687 24.21 40.4512 25.5909 40.9837 27.0684C41.177 27.6047 41.3124 28.16 41.3878 28.725C41.4254 29.0251 41.4442 29.3272 41.4441 29.6297C41.4431 32.5097 39.7369 35.2725 36.6394 37.4062V37.4062ZM43.1644 25.7887C42.4959 24.1687 41.4244 22.6678 39.9703 21.315C40.3647 21.107 40.8041 20.9988 41.25 21C41.9847 21.0045 42.6877 21.3002 43.2046 21.8224C43.7215 22.3446 44.0102 23.0506 44.0072 23.7853C44.0065 24.1587 43.9317 24.5283 43.787 24.8725C43.6423 25.2168 43.4307 25.5289 43.1644 25.7906V25.7887Z" fill="white" />
    <path d="M30.3028 33.9581C30.2794 33.9816 27.9066 36.4022 24.0075 36.4209C20.07 36.4022 17.7938 34.0556 17.6972 33.9581C17.6245 33.886 17.5263 33.8456 17.4239 33.8456C17.3215 33.8456 17.2233 33.886 17.1506 33.9581L15.8663 35.2209C15.8298 35.2571 15.8009 35.3001 15.7812 35.3475C15.7615 35.3949 15.7513 35.4457 15.7513 35.497C15.7513 35.5484 15.7615 35.5992 15.7812 35.6466C15.8009 35.6939 15.8298 35.737 15.8663 35.7731C16.185 36.0919 19.1194 38.9822 24.0019 39.0028C28.8713 38.9822 31.8188 36.0919 32.1375 35.7731C32.174 35.7369 32.2029 35.6938 32.2226 35.6463C32.2424 35.5989 32.2525 35.548 32.2525 35.4966C32.2525 35.4452 32.2424 35.3943 32.2226 35.3468C32.2029 35.2993 32.174 35.2562 32.1375 35.22L30.8522 33.9572C30.7797 33.8855 30.6818 33.8452 30.5798 33.8452C30.4779 33.8452 30.38 33.8855 30.3075 33.9572L30.3028 33.9581Z" fill="white" />
</svg>