<svg width="32" height="31" viewBox="0 0 32 31" fill="none" xmlns="http://www.w3.org/2000/svg">
<path d="M26.8158 5C27.552 5 28.1074 5.64583 27.8104 6.84708L24.2066 23.8325C23.9547 25.0402 23.2249 25.3308 22.2174 24.769L13.6214 18.4204C13.5881 18.3965 13.5609 18.365 13.5422 18.3285C13.5234 18.292 13.5137 18.2515 13.5137 18.2105C13.5137 18.1695 13.5234 18.1291 13.5422 18.0926C13.5609 18.0561 13.5881 18.0245 13.6214 18.0006L23.5479 9.03646C23.9999 8.63604 23.451 8.44229 22.8568 8.80396L10.3987 16.6638C10.3609 16.6884 10.318 16.7041 10.2732 16.7097C10.2285 16.7153 10.183 16.7106 10.1404 16.696L4.85098 15.0233C3.67556 14.681 3.67556 13.8737 5.11577 13.299L26.2797 5.13563C26.4476 5.0551 26.6298 5.00899 26.8158 5V5Z" stroke="white" stroke-width="2" stroke-linecap="round" stroke-linejoin="round"/>
</svg>
