<svg width="31" height="31" viewBox="0 0 31 31" fill="none" xmlns="http://www.w3.org/2000/svg">
<path d="M12.0964 14.4667C10.75 14.4654 9.43329 14.8631 8.31267 15.6096C7.19205 16.3561 6.31773 17.4179 5.80011 18.6609C5.28248 19.9039 5.14476 21.2724 5.40432 22.5937C5.66389 23.9149 6.3091 25.1296 7.25851 26.0844C8.20791 27.0392 9.41893 27.6913 10.7387 27.9584C12.0584 28.2254 13.4277 28.0955 14.6736 27.5849C15.9196 27.0744 16.9863 26.2061 17.7391 25.0897C18.492 23.9734 18.8971 22.659 18.9035 21.3125V2.90625C18.9035 4.71331 19.6214 6.44636 20.8992 7.72415C22.177 9.00194 23.91 9.71979 25.7171 9.71979" stroke="white" stroke-width="2" stroke-linecap="round" stroke-linejoin="round"/>
</svg>
