<svg width="32" height="31" viewBox="0 0 32 31" fill="none" xmlns="http://www.w3.org/2000/svg">
<g clip-path="url(#clip0_24_346)">
<path d="M21.3875 4.80408C23.04 4.80408 24.5319 5.45907 25.5829 6.51065C26.8904 6.26556 28.1229 5.81896 29.2304 5.20042C28.8019 6.46079 27.8904 7.51815 26.705 8.18707C27.865 8.05484 28.9755 7.76615 30.006 7.33457C29.2335 8.41667 28.261 9.36943 27.138 10.1309C27.1485 10.3619 27.1545 10.5954 27.1545 10.8279C27.1545 17.9642 21.373 26.1951 10.801 26.1951C7.556 26.1951 4.5335 25.2981 1.99153 23.7665C2.44628 23.8177 2.90372 23.8433 3.36153 23.843C6.05404 23.843 8.5335 22.9803 10.501 21.5301C7.9845 21.4884 5.8605 19.9254 5.132 17.781C5.48879 17.8458 5.85101 17.8784 6.214 17.8784C6.7365 17.8784 7.2455 17.813 7.7265 17.689C5.0975 17.1945 3.116 15.0114 3.116 12.3933V12.324C3.8915 12.729 4.777 12.9721 5.7205 13.0002C4.1775 12.0305 3.163 10.3797 3.163 8.50567C3.163 7.51512 3.44703 6.58706 3.94153 5.7922C6.77553 9.05786 11.0105 11.2085 15.788 11.4347C15.6895 11.0404 15.6385 10.6238 15.6385 10.2049C15.6385 7.22159 18.212 4.80408 21.3875 4.80408ZM30.0059 7.33557H30.0109H30.0059ZM21.3874 2.8667C17.4604 2.8667 14.207 5.64607 13.706 9.23723C10.493 8.6119 7.57097 6.96406 5.47147 4.54654C5.28379 4.33025 5.04954 4.15636 4.78514 4.03704C4.52075 3.91773 4.23261 3.85589 3.94094 3.85585C3.88856 3.85587 3.8362 3.8578 3.78397 3.86167C3.46696 3.88626 3.16054 3.98361 2.89005 4.14566C2.61957 4.30772 2.39279 4.52982 2.22847 4.7936C1.53121 5.91439 1.1628 7.19823 1.16294 8.50682C1.16294 9.38015 1.32491 10.2307 1.63194 11.0261C1.30494 11.3782 1.11644 11.8388 1.11644 12.3252V12.3944C1.11644 14.2922 1.89094 16.0534 3.17694 17.3733C3.10294 17.7056 3.11944 18.0534 3.23244 18.3866C3.67597 19.6939 4.48347 20.8206 5.53047 21.6789C4.82744 21.8305 4.10197 21.907 3.36144 21.907C2.96994 21.907 2.58894 21.8862 2.22844 21.8435C2.14844 21.8339 2.06944 21.8305 1.98994 21.8305C1.14994 21.8305 0.387441 22.3434 0.104441 23.1257C-0.206059 23.983 0.138472 24.9334 0.934441 25.4134C3.88847 27.194 7.30044 28.1341 10.8004 28.1341C22.1764 28.1341 29.0194 19.5069 29.1524 11.0798C30.0859 10.3316 30.9106 9.46443 31.6039 8.50192C31.8672 8.167 32.0095 7.7575 32.0089 7.33651C32.0089 6.67728 31.6685 6.09457 31.15 5.74434C31.3745 4.99889 31.1184 4.19192 30.4934 3.69883C30.1284 3.41111 29.6809 3.26483 29.2309 3.26483C28.8802 3.26451 28.5356 3.3539 28.2319 3.52397C27.5709 3.89309 26.8639 4.18517 26.1194 4.39542C24.7724 3.41359 23.1024 2.86673 21.3874 2.8667Z" fill="white"/>
</g>
<defs>
<clipPath id="clip0_24_346">
<rect width="32" height="31" fill="white"/>
</clipPath>
</defs>
</svg>
