<svg width="31" height="31" viewBox="0 0 31 31" fill="none" xmlns="http://www.w3.org/2000/svg">
<g clip-path="url(#clip0_24_348)">
<path d="M28.4793 5.74255C27.6394 5.13805 25.2989 4.33496 15.4918 4.33496C4.98228 4.33496 3.42308 5.25721 2.92269 5.55898C0.259599 7.15884 0.00675549 14.2419 -0.0164642 15.678C0.0155045 17.5749 0.322114 23.8858 2.92079 25.447C3.42021 25.7477 4.97066 26.6646 15.4918 26.6646C25.3052 26.6646 27.6428 25.8654 28.4793 25.2634C30.7491 23.6306 31.0102 18.0074 31.0165 15.6534C31.0107 13.7604 30.8121 7.42288 28.4793 5.74259L28.4793 5.74255ZM27.3478 23.6911C27.0102 23.9342 25.0717 24.7271 15.4917 24.7271C6.22998 24.7271 4.28666 24.0083 3.91951 23.7869C2.98466 23.226 1.99799 20.2486 1.92052 15.6727C1.99705 11.107 2.99729 7.77399 3.9215 7.21987C4.28963 6.99754 6.24018 6.27291 15.4917 6.27291C25.0639 6.27291 27.0077 7.0712 27.3478 7.31532C28.1775 7.91304 29.0659 11.0595 29.0789 15.6596C29.0659 20.3319 28.1717 23.0982 27.3478 23.6911H27.3478ZM21.8094 14.7378L13.0927 9.38884C12.9457 9.30023 12.7779 9.25224 12.6063 9.24977C12.4347 9.2473 12.2656 9.29045 12.1162 9.37479C11.9666 9.45915 11.8421 9.58173 11.7555 9.72998C11.6688 9.87824 11.6231 10.0469 11.6231 10.2186V20.9184C11.6232 21.1753 11.7253 21.4216 11.9069 21.6033C12.0886 21.7849 12.3349 21.887 12.5918 21.8872C12.7681 21.8872 12.9411 21.8391 13.0921 21.7481L21.809 16.3973C22.0996 16.2215 22.2774 15.9071 22.2774 15.5676C22.2774 15.228 22.1001 14.9127 21.8095 14.7378H21.8094ZM13.5611 19.2023V11.9337L19.4341 15.5675L13.5611 19.2023Z" fill="white"/>
</g>
<defs>
<clipPath id="clip0_24_348">
<rect width="31" height="31" fill="white"/>
</clipPath>
</defs>
</svg>
