<svg width="11" height="14" viewBox="0 0 11 14" fill="none" xmlns="http://www.w3.org/2000/svg">
<path d="M10.7695 10.9103C10.572 11.3994 10.3382 11.8496 10.0673 12.2635C9.69815 12.8278 9.39587 13.2185 9.16291 13.4354C8.80177 13.7914 8.41485 13.9737 8.00051 13.9841C7.70306 13.9841 7.34435 13.8934 6.92679 13.7093C6.50786 13.5261 6.12287 13.4354 5.77085 13.4354C5.40166 13.4354 5.0057 13.5261 4.58218 13.7093C4.15801 13.8934 3.81631 13.9893 3.55505 13.9988C3.15772 14.0169 2.76169 13.8294 2.36638 13.4354C2.11407 13.1994 1.79848 12.795 1.42042 12.2221C1.0148 11.6102 0.681313 10.9007 0.420057 10.0919C0.140261 9.2182 0 8.37218 0 7.55312C0 6.61489 0.18911 5.80568 0.567895 5.12756C0.865587 4.58288 1.26162 4.15321 1.75729 3.83779C2.25296 3.52236 2.78853 3.36163 3.36529 3.35134C3.68088 3.35134 4.09473 3.456 4.60902 3.66167C5.12186 3.86803 5.45115 3.97268 5.59552 3.97268C5.70346 3.97268 6.06927 3.85032 6.6894 3.60636C7.27583 3.38012 7.77078 3.28645 8.17624 3.32335C9.27495 3.4184 10.1004 3.88272 10.6493 4.71924C9.66672 5.35752 9.18064 6.2515 9.19031 7.39835C9.19918 8.29164 9.50147 9.035 10.0956 9.62523C10.3648 9.89917 10.6655 10.1109 11 10.2613C10.9275 10.4868 10.8509 10.7029 10.7695 10.9103ZM8.2496 0.28008C8.2496 0.98024 8.01099 1.63398 7.5354 2.23907C6.96145 2.95841 6.26724 3.37407 5.51443 3.30848C5.50484 3.22448 5.49928 3.13608 5.49928 3.04318C5.49928 2.37103 5.77222 1.65169 6.25693 1.06354C6.49892 0.765744 6.80668 0.518133 7.17991 0.320609C7.55232 0.126032 7.90459 0.0184269 8.23589 0C8.24557 0.0936005 8.2496 0.187207 8.2496 0.280071V0.28008Z" fill="white"/>
</svg>
