<svg width="35" height="36" viewBox="0 0 35 36" fill="none" xmlns="http://www.w3.org/2000/svg">
<g clip-path="url(#clip0_18_53)">
<path fill-rule="evenodd" clip-rule="evenodd" d="M33.6885 9.81559C34.2378 9.81559 34.683 10.2725 34.683 10.8363C34.683 11.4001 34.2378 11.8578 33.6885 11.8578C33.1392 11.8578 32.694 11.4001 32.694 10.8363C32.694 10.2725 33.1392 9.81559 33.6885 9.81559ZM29.2974 14.3386C29.7988 15.1007 30.3227 15.5864 30.8721 15.739C31.3981 15.8845 32.0481 15.7326 32.8426 15.2314C33.4871 14.8251 34.331 15.0318 34.7269 15.6933C34.8611 15.9168 34.9269 16.1636 34.9296 16.4089C34.9645 16.8026 34.9864 17.2068 34.9953 17.6202C35.0049 18.0666 35.0001 18.5066 34.9789 18.9355C34.7364 23.8901 32.5597 28.2746 29.2371 31.3587C25.9138 34.442 21.4467 36.2254 16.6262 35.9766C11.7995 35.7277 7.52686 33.4929 4.52206 30.0834C1.51727 26.6725 -0.219719 22.0884 0.0227464 17.14C0.265212 12.1931 2.49946 7.79661 5.87549 4.69573C9.26453 1.58361 13.8056 -0.226588 18.6358 0.0222699C19.3892 0.0588253 19.9721 0.716119 19.9364 1.48941C19.9296 1.64125 19.8995 1.78536 19.8501 1.91963C19.5618 2.88343 19.5378 3.76006 19.77 4.44266C19.9611 5.00434 20.3515 5.43949 20.9344 5.66164C21.6173 5.92245 21.9762 6.68589 21.7611 7.39169L21.7645 7.39239C21.2912 8.94951 21.2789 10.3091 21.6186 11.3903C21.8159 12.0195 22.1358 12.5551 22.5529 12.9783C22.97 13.4015 23.4933 13.72 24.0974 13.9133C25.1118 14.2374 26.3549 14.2142 27.7282 13.7594C28.3316 13.5604 28.9714 13.8149 29.2974 14.3386ZM26.5604 7.1112C27.3871 7.1112 28.0577 7.79942 28.0577 8.64793C28.0577 9.49644 27.3871 10.1854 26.5604 10.1854C25.733 10.1854 25.0632 9.49644 25.0632 8.64793C25.0632 7.79942 25.733 7.1112 26.5604 7.1112ZM27.718 0.748456C28.6036 0.748456 29.3214 1.48589 29.3214 2.39485C29.3214 3.30452 28.6036 4.04125 27.718 4.04125C26.8323 4.04125 26.1138 3.30452 26.1138 2.39485C26.1138 1.48589 26.8323 0.748456 27.718 0.748456Z" fill="#773E15"/>
<path fill-rule="evenodd" clip-rule="evenodd" d="M28.1459 15.0945C29.5301 17.2155 31.2835 17.8664 33.5596 16.4295C33.6349 17.2288 33.6541 18.0436 33.6137 18.8696C33.1657 28.0035 25.589 35.0355 16.6904 34.5757C7.79108 34.1167 0.940395 26.3395 1.38765 17.2063C1.83492 8.0731 9.6719 0.964488 18.5712 1.42424C17.7822 3.95711 18.4493 6.20807 20.4575 6.97503C18.6363 12.9736 22.7 16.8984 28.1459 15.0945Z" fill="#CC7A3D"/>
<path fill-rule="evenodd" clip-rule="evenodd" d="M9.42737 13.9128C10.7602 13.9128 11.8411 15.0221 11.8411 16.3902C11.8411 17.7589 10.7602 18.8682 9.42737 18.8682C8.09449 18.8682 7.01367 17.7589 7.01367 16.3902C7.01367 15.0221 8.09449 13.9128 9.42737 13.9128ZM30.9178 19.7814C31.4301 19.7814 31.8452 20.2074 31.8452 20.7325C31.8452 21.2576 31.4301 21.6844 30.9178 21.6844C30.4061 21.6844 29.9911 21.2576 29.9911 20.7325C29.9911 20.2074 30.4061 19.7814 30.9178 19.7814ZM26.7787 20.7494C27.2911 20.7494 27.7055 21.1754 27.7055 21.7005C27.7055 22.2257 27.2911 22.6517 26.7787 22.6517C26.2671 22.6517 25.852 22.2257 25.852 21.7005C25.852 21.1754 26.2671 20.7494 26.7787 20.7494ZM22.6397 18.5814C23.0445 18.5814 23.3726 18.9188 23.3726 19.3343C23.3726 19.7497 23.0445 20.0872 22.6397 20.0872C22.2342 20.0872 21.9061 19.7497 21.9061 19.3343C21.9061 18.9188 22.2342 18.5814 22.6397 18.5814ZM9.99038 6.93286C10.502 6.93286 10.9171 7.35887 10.9171 7.884C10.9171 8.40914 10.502 8.83515 9.99038 8.83515C9.47806 8.83515 9.06299 8.40914 9.06299 7.884C9.06299 7.35887 9.47806 6.93286 9.99038 6.93286ZM17.0253 17.0692C17.7938 17.0692 18.4164 17.7083 18.4164 18.497C18.4164 19.2851 17.7938 19.9241 17.0253 19.9241C16.2575 19.9241 15.6349 19.2851 15.6349 18.497C15.6349 17.7083 16.2575 17.0692 17.0253 17.0692ZM10.9938 22.9469C11.9301 22.9469 12.6897 23.7265 12.6897 24.6868C12.6897 25.6478 11.9301 26.4274 10.9938 26.4274C10.0575 26.4274 9.29929 25.6478 9.29929 24.6868C9.29929 23.7265 10.0575 22.9469 10.9938 22.9469ZM14.6493 9.62812C15.3842 9.62812 15.9794 10.2397 15.9794 10.9933C15.9794 11.7469 15.3842 12.3578 14.6493 12.3578C13.915 12.3578 13.3198 11.7469 13.3198 10.9933C13.3198 10.2397 13.915 9.62812 14.6493 9.62812ZM21.8692 23.5571C23.0993 23.5571 24.0972 24.5807 24.0972 25.8439C24.0972 27.1072 23.0993 28.1308 21.8692 28.1308C20.6383 28.1308 19.6411 27.1072 19.6411 25.8439C19.6411 24.5807 20.6383 23.5571 21.8692 23.5571Z" fill="#965323"/>
</g>
<defs>
<clipPath id="clip0_18_53">
<rect width="35" height="36" fill="white"/>
</clipPath>
</defs>
</svg>
