<svg width="20" height="20" viewBox="0 0 20 20" fill="none" xmlns="http://www.w3.org/2000/svg">
<path d="M4 12.9992C3.17 12.9992 2.42 13.3392 1.88 13.8792C0.7 15.0592 0 19.9992 0 19.9992C0 19.9992 4.94 19.2992 6.12 18.1192C6.54099 17.7004 6.82802 17.166 6.94467 16.5837C7.06131 16.0015 7.0023 15.3977 6.77513 14.849C6.54796 14.3004 6.16287 13.8316 5.66876 13.5023C5.17465 13.1729 4.59382 12.9978 4 12.9992ZM4.71 16.7092C4.43 16.9892 2.54 17.4692 2.54 17.4692C2.54 17.4692 3.01 15.5892 3.3 15.2992C3.47 15.1092 3.72 14.9992 4 14.9992C4.19798 14.9995 4.39145 15.0584 4.55604 15.1684C4.72062 15.2784 4.84896 15.4347 4.92488 15.6176C5.0008 15.8004 5.02091 16.0017 4.98267 16.1959C4.94443 16.3902 4.84956 16.5688 4.71 16.7092ZM15.42 11.6492C21.78 5.2892 19.66 0.3392 19.66 0.3392C19.66 0.3392 14.71 -1.7808 8.35 4.5792L5.86 4.0792C5.53632 4.01705 5.20237 4.03465 4.88702 4.13048C4.57166 4.2263 4.28438 4.39747 4.05 4.6292L0 8.6892L5 10.8292L9.17 14.9992L11.31 19.9992L15.36 15.9492C15.83 15.4792 16.04 14.7992 15.91 14.1392L15.42 11.6492ZM5.41 8.8292L3.5 8.0092L5.47 6.0392L6.91 6.3292C6.34 7.1592 5.83 8.0292 5.41 8.8292ZM11.99 16.4992L11.17 14.5892C11.97 14.1692 12.84 13.6592 13.66 13.0892L13.95 14.5292L11.99 16.4992ZM14 10.2392C12.68 11.5592 10.62 12.6392 9.96 12.9692L7.03 10.0392C7.35 9.3892 8.43 7.3292 9.76 5.9992C14.44 1.3192 17.99 2.0092 17.99 2.0092C17.99 2.0092 18.68 5.5592 14 10.2392ZM13 8.9992C14.1 8.9992 15 8.0992 15 6.9992C15 5.8992 14.1 4.9992 13 4.9992C11.9 4.9992 11 5.8992 11 6.9992C11 8.0992 11.9 8.9992 13 8.9992Z" fill="white"/>
</svg>
