<svg width="155" height="33" viewBox="0 0 155 33" fill="none" xmlns="http://www.w3.org/2000/svg">
<path d="M8.4 32V6.38H0.462V0.709997H22.722V6.38H14.91V32H8.4ZM23.1919 32V9.068H29.0719V14.57L28.6519 13.772C29.1559 11.84 29.9819 10.538 31.1299 9.866C32.3059 9.166 33.6919 8.816 35.2879 8.816H36.6319V14.276H34.6579C33.1179 14.276 31.8719 14.752 30.9199 15.704C29.9679 16.628 29.4919 17.944 29.4919 19.652V32H23.1919ZM50.649 32.504C48.213 32.504 46.099 31.972 44.307 30.908C42.515 29.816 41.129 28.36 40.149 26.54C39.169 24.72 38.679 22.704 38.679 20.492C38.679 18.196 39.183 16.152 40.191 14.36C41.227 12.568 42.613 11.154 44.349 10.118C46.085 9.082 48.045 8.564 50.229 8.564C52.049 8.564 53.659 8.858 55.059 9.446C56.459 10.006 57.635 10.804 58.587 11.84C59.567 12.876 60.309 14.08 60.813 15.452C61.317 16.796 61.569 18.266 61.569 19.862C61.569 20.31 61.541 20.758 61.485 21.206C61.457 21.626 61.387 21.99 61.275 22.298H44.097V17.678H57.705L54.723 19.862C55.003 18.658 54.989 17.594 54.681 16.67C54.373 15.718 53.827 14.976 53.043 14.444C52.287 13.884 51.349 13.604 50.229 13.604C49.137 13.604 48.199 13.87 47.415 14.402C46.631 14.934 46.043 15.718 45.651 16.754C45.259 17.79 45.105 19.05 45.189 20.534C45.077 21.822 45.231 22.956 45.651 23.936C46.071 24.916 46.715 25.686 47.583 26.246C48.451 26.778 49.501 27.044 50.733 27.044C51.853 27.044 52.805 26.82 53.589 26.372C54.401 25.924 55.031 25.308 55.479 24.524L60.519 26.918C60.071 28.038 59.357 29.018 58.377 29.858C57.425 30.698 56.291 31.356 54.975 31.832C53.659 32.28 52.217 32.504 50.649 32.504ZM65.4888 32V0.205999H71.7888V20.576L69.4368 19.82L79.5588 9.068H87.3288L79.0128 18.308L87.2868 32H80.1468L73.2168 20.366L76.8708 19.442L69.8568 27.086L71.7888 23.432V32H65.4888ZM90.3082 32V0.205999H96.6082V20.576L94.2562 19.82L104.378 9.068H112.148L103.832 18.308L112.106 32H104.966L98.0362 20.366L101.69 19.442L94.6762 27.086L96.6082 23.432V32H90.3082ZM125.763 32.504C123.327 32.504 121.213 31.972 119.421 30.908C117.629 29.816 116.243 28.36 115.263 26.54C114.283 24.72 113.793 22.704 113.793 20.492C113.793 18.196 114.297 16.152 115.305 14.36C116.341 12.568 117.727 11.154 119.463 10.118C121.199 9.082 123.159 8.564 125.343 8.564C127.163 8.564 128.773 8.858 130.173 9.446C131.573 10.006 132.749 10.804 133.701 11.84C134.681 12.876 135.423 14.08 135.927 15.452C136.431 16.796 136.683 18.266 136.683 19.862C136.683 20.31 136.655 20.758 136.599 21.206C136.571 21.626 136.501 21.99 136.389 22.298H119.211V17.678H132.819L129.837 19.862C130.117 18.658 130.103 17.594 129.795 16.67C129.487 15.718 128.941 14.976 128.157 14.444C127.401 13.884 126.463 13.604 125.343 13.604C124.251 13.604 123.313 13.87 122.529 14.402C121.745 14.934 121.157 15.718 120.765 16.754C120.373 17.79 120.219 19.05 120.303 20.534C120.191 21.822 120.345 22.956 120.765 23.936C121.185 24.916 121.829 25.686 122.697 26.246C123.565 26.778 124.615 27.044 125.847 27.044C126.967 27.044 127.919 26.82 128.703 26.372C129.515 25.924 130.145 25.308 130.593 24.524L135.633 26.918C135.185 28.038 134.471 29.018 133.491 29.858C132.539 30.698 131.405 31.356 130.089 31.832C128.773 32.28 127.331 32.504 125.763 32.504ZM140.603 32V9.068H146.483V14.57L146.063 13.772C146.567 11.84 147.393 10.538 148.541 9.866C149.717 9.166 151.103 8.816 152.699 8.816H154.043V14.276H152.069C150.529 14.276 149.283 14.752 148.331 15.704C147.379 16.628 146.903 17.944 146.903 19.652V32H140.603Z" fill="#F26F55"/>
</svg>
