<svg width="24" height="24" viewBox="0 0 24 24" fill="none" xmlns="http://www.w3.org/2000/svg">
<g clip-path="url(#clip0_0_2261)">
<path d="M19 2H5C2.243 2 0 4.243 0 7V21C0 21.553 0.448 22 1 22C1.552 22 2 21.553 2 21V19H22V21C22 21.553 22.447 22 23 22C23.553 22 24 21.553 24 21V7C24 4.243 21.757 2 19 2ZM5 4H19C20.654 4 22 5.346 22 7V13H20C20 10.794 18.206 9 16 9H15C13.806 9 12.734 9.526 12 10.357C11.266 9.525 10.194 9 9 9H8C5.794 9 4 10.794 4 13H2V7C2 5.346 3.346 4 5 4ZM13 13C13 11.897 13.897 11 15 11H16C17.103 11 18 11.897 18 13H13ZM6 13C6 11.897 6.897 11 8 11H9C10.103 11 11 11.897 11 13H6ZM2 17V15H22V17H2Z" fill="#1D1D2F"/>
</g>
<defs>
<clipPath id="clip0_0_2261">
<rect width="24" height="24" fill="white"/>
</clipPath>
</defs>
</svg>
