<svg width="24" height="24" viewBox="0 0 24 24" fill="none" xmlns="http://www.w3.org/2000/svg">
<g clip-path="url(#clip0_0_2243)">
<path d="M24 7.51397V13.952C24 16.184 22.185 18 19.952 18H15C14.447 18 14 17.553 14 17C14 16.447 14.447 16 15 16H19.952C21.081 16 22 15.081 22 13.952V7.51397C22 6.70497 21.6 5.95197 20.93 5.49997L16.359 2.41597C15.535 1.85897 14.466 1.85897 13.642 2.41597L9.071 5.49997C8.401 5.95197 8.001 6.70497 8.001 7.51397V8.99997C8.001 9.55297 7.554 9.99997 7.001 9.99997C6.448 9.99997 6.001 9.55297 6.001 8.99997V7.51397C6.001 6.03997 6.73 4.66697 7.952 3.84197L12.522 0.757972C14.028 -0.258028 15.971 -0.258028 17.477 0.757972L22.048 3.84197C23.27 4.66697 24 6.03997 24 7.51397ZM16 13C16.552 13 17 12.552 17 12V9.99997C17 9.44797 16.552 8.99997 16 8.99997H14C13.448 8.99997 13 9.44797 13 9.99997V12C13 12.552 13.448 13 14 13H16ZM1.5 21C0.672 21 0 21.672 0 22.5C0 23.328 0.672 24 1.5 24C2.328 24 3 23.328 3 22.5C3 21.672 2.328 21 1.5 21ZM1 16C0.447 16 0 16.447 0 17C0 17.553 0.447 18 1 18C3.757 18 6 20.243 6 23C6 23.553 6.447 24 7 24C7.553 24 8 23.553 8 23C8 19.141 4.859 16 1 16ZM1 11C0.447 11 0 11.447 0 12C0 12.553 0.447 13 1 13C6.514 13 11 17.486 11 23C11 23.553 11.447 24 12 24C12.553 24 13 23.553 13 23C13 16.383 7.617 11 1 11Z" fill="#1D1D2F"/>
</g>
<defs>
<clipPath id="clip0_0_2243">
<rect width="24" height="24" fill="white"/>
</clipPath>
</defs>
</svg>
