<svg width="24" height="24" viewBox="0 0 24 24" fill="none" xmlns="http://www.w3.org/2000/svg">
<g clip-path="url(#clip0_0_2249)">
<path d="M1.33263 7.23792C0.483631 5.52192 -1.20037 1.26892 1.19963 0.149922C1.55645 0.00138472 1.94938 -0.0377083 2.32847 0.0376113C2.70756 0.112931 3.0557 0.299262 3.32863 0.572922L8.28863 5.87292C8.38233 5.96498 8.45698 6.07459 8.50832 6.19549C8.55965 6.3164 8.58667 6.44623 8.58783 6.57758C8.58899 6.70893 8.56427 6.83922 8.51508 6.96102C8.46589 7.08281 8.39319 7.19372 8.30113 7.28742C8.20907 7.38112 8.09946 7.45577 7.97856 7.50711C7.85765 7.55844 7.72782 7.58546 7.59647 7.58662C7.46512 7.58778 7.33483 7.56306 7.21304 7.51387C7.09124 7.46468 6.98033 7.39198 6.88663 7.29992L1.99963 2.07992C2.11863 5.85692 4.34263 8.67992 6.84063 11.5189C7.03238 11.7032 7.14306 11.9562 7.14831 12.2221C7.15356 12.488 7.05296 12.7452 6.86863 12.9369C6.68431 13.1287 6.43136 13.2393 6.16543 13.2446C5.8995 13.2499 5.64238 13.1492 5.45063 12.9649C3.80914 11.2644 2.42213 9.3354 1.33263 7.23792ZM18.0046 16.1999C17.8684 16.0507 17.6982 15.9364 17.5085 15.8668C17.3188 15.7971 17.1151 15.7742 16.9146 15.7999C15.7546 15.9556 14.5745 15.8567 13.4566 15.5099C13.2854 15.4594 13.1037 15.4564 12.931 15.5011C12.7582 15.5458 12.6008 15.6367 12.4756 15.7639C10.9816 18.0199 15.7496 17.8769 16.7876 17.8439L22.2706 23.6829C22.3607 23.7787 22.4686 23.8557 22.5885 23.9097C22.7083 23.9637 22.8375 23.9936 22.9689 23.9976C23.1002 24.0017 23.2311 23.9798 23.354 23.9333C23.4769 23.8867 23.5894 23.8164 23.6851 23.7264C23.7809 23.6364 23.8579 23.5284 23.9119 23.4086C23.9659 23.2888 23.9958 23.1595 23.9998 23.0282C24.0039 22.8968 23.982 22.766 23.9355 22.6431C23.8889 22.5202 23.8187 22.4077 23.7286 22.3119L18.0046 16.1999ZM14.9996 13.9999C15.6562 14.0009 16.3066 13.8722 16.9133 13.6213C17.5201 13.3704 18.0714 13.0023 18.5356 12.5379L23.7066 7.36592C23.7996 7.27308 23.8734 7.16283 23.9238 7.04147C23.9741 6.92011 24.0001 6.79002 24.0002 6.65863C24.0003 6.52723 23.9745 6.39711 23.9243 6.27568C23.8741 6.15425 23.8005 6.0439 23.7076 5.95092C23.6148 5.85795 23.5045 5.78417 23.3832 5.7338C23.2618 5.68343 23.1317 5.65746 23.0003 5.65737C22.8689 5.65727 22.7388 5.68306 22.6174 5.73326C22.496 5.78345 22.3856 5.85708 22.2926 5.94992L17.1216 11.1219C16.6825 11.5572 16.1195 11.8462 15.5099 11.9493C14.9002 12.0524 14.2735 11.9646 13.7156 11.6979L20.7066 4.70692C20.8021 4.61467 20.8783 4.50433 20.9307 4.38233C20.9831 4.26032 21.0107 4.1291 21.0119 3.99632C21.013 3.86354 20.9877 3.73186 20.9375 3.60897C20.8872 3.48607 20.8129 3.37442 20.719 3.28053C20.6251 3.18663 20.5135 3.11238 20.3906 3.0621C20.2677 3.01182 20.136 2.98652 20.0032 2.98767C19.8705 2.98882 19.7392 3.01641 19.6172 3.06882C19.4952 3.12123 19.3849 3.19741 19.2926 3.29292L12.2996 10.2839C12.0329 9.72605 11.9451 9.09939 12.0482 8.4897C12.1513 7.88001 12.4403 7.31707 12.8756 6.87792L18.0496 1.70692C18.2318 1.51832 18.3326 1.26572 18.3303 1.00352C18.328 0.741324 18.2229 0.490511 18.0375 0.305103C17.852 0.119695 17.6012 0.014526 17.339 0.0122476C17.0768 0.00996919 16.8242 0.110764 16.6356 0.292922L11.4636 5.46392C10.6504 6.27993 10.1432 7.3513 10.0275 8.49755C9.91187 9.6438 10.1948 10.7949 10.8286 11.7569L0.292631 22.2929C0.110473 22.4815 0.00967892 22.7341 0.0119573 22.9963C0.0142358 23.2585 0.119405 23.5093 0.304813 23.6947C0.490221 23.8801 0.741033 23.9853 1.00323 23.9876C1.26543 23.9899 1.51803 23.8891 1.70663 23.7069L12.2426 13.1709C13.0605 13.7116 14.0192 13.9999 14.9996 13.9999Z" fill="#1D1D2F"/>
</g>
<defs>
<clipPath id="clip0_0_2249">
<rect width="24" height="24" fill="white"/>
</clipPath>
</defs>
</svg>
