<svg width="24" height="24" viewBox="0 0 24 24" fill="none" xmlns="http://www.w3.org/2000/svg">
<g clip-path="url(#clip0_0_2255)">
<path d="M2.00075 2C2.00075 1.73478 2.1061 1.48043 2.29364 1.29289C2.48118 1.10536 2.73553 1 3.00075 1H7.91675C8.72161 0.999755 9.51464 1.19381 10.2284 1.56569C10.9422 1.93756 11.5557 2.47626 12.0167 3.136L17.1307 10.453C17.2061 10.5608 17.2594 10.6823 17.2878 10.8106C17.3161 10.939 17.3189 11.0717 17.296 11.2012C17.273 11.3306 17.2248 11.4543 17.1541 11.5651C17.0834 11.6759 16.9915 11.7717 16.8837 11.847C16.776 11.9223 16.6545 11.9757 16.5261 12.004C16.3977 12.0324 16.265 12.0351 16.1356 12.0122C16.0061 11.9893 15.8825 11.9411 15.7717 11.8703C15.6609 11.7996 15.5651 11.7078 15.4897 11.6L12.0167 6.63L3.59375 12.807C3.37972 12.964 3.11208 13.0296 2.84972 12.9892C2.58735 12.9489 2.35175 12.806 2.19475 12.592C2.03774 12.378 1.97218 12.1103 2.0125 11.848C2.05282 11.5856 2.19572 11.35 2.40975 11.193L10.8707 4.993L10.3757 4.286C10.0997 3.88948 9.732 3.56549 9.30387 3.34159C8.87575 3.1177 8.39988 3.00051 7.91675 3H3.00075C2.73553 3 2.48118 2.89464 2.29364 2.70711C2.1061 2.51957 2.00075 2.26522 2.00075 2ZM22.3337 20.49C21.9677 20.8189 21.4928 21.0006 21.0007 21C20.5657 21.0007 20.1397 20.8751 19.7746 20.6385C19.4095 20.4019 19.1208 20.0644 18.9437 19.667C18.8747 19.4722 18.747 19.3037 18.5782 19.1844C18.4094 19.0652 18.2079 19.0012 18.0012 19.0012C17.7946 19.0012 17.593 19.0652 17.4243 19.1844C17.2555 19.3037 17.1278 19.4722 17.0587 19.667C16.8811 20.0641 16.5923 20.4014 16.2272 20.638C15.8621 20.8746 15.4363 21.0006 15.0012 21.0006C14.5662 21.0006 14.1404 20.8746 13.7753 20.638C13.4102 20.4014 13.1214 20.0641 12.9437 19.667C12.8747 19.4722 12.747 19.3037 12.5782 19.1844C12.4094 19.0652 12.2079 19.0012 12.0012 19.0012C11.7946 19.0012 11.593 19.0652 11.4243 19.1844C11.2555 19.3037 11.1278 19.4722 11.0587 19.667C10.8811 20.0641 10.5923 20.4014 10.2272 20.638C9.86209 20.8746 9.43632 21.0006 9.00125 21.0006C8.56617 21.0006 8.1404 20.8746 7.77531 20.638C7.41022 20.4014 7.12141 20.0641 6.94375 19.667C6.87469 19.4722 6.74699 19.3037 6.57822 19.1844C6.40945 19.0652 6.20788 19.0012 6.00125 19.0012C5.79461 19.0012 5.59305 19.0652 5.42427 19.1844C5.2555 19.3037 5.12781 19.4722 5.05875 19.667C4.88138 20.0644 4.59256 20.4019 4.22728 20.6385C3.862 20.8751 3.43595 21.0006 3.00075 21C2.50868 20.9994 2.03409 20.8175 1.66775 20.489C1.4697 20.316 1.21145 20.2279 0.948932 20.2439C0.686418 20.2599 0.440774 20.3787 0.265206 20.5745C0.0896379 20.7703 -0.00171899 21.0274 0.0109226 21.2901C0.0235642 21.5528 0.139186 21.7999 0.332746 21.978C1.06595 22.6355 2.01593 22.9994 3.00075 23C4.1206 22.9903 5.19418 22.5519 6.00075 21.775C6.80191 22.5602 7.87897 23 9.00075 23C10.1225 23 11.1996 22.5602 12.0007 21.775C12.8019 22.5602 13.879 23 15.0007 23C16.1225 23 17.1996 22.5602 18.0007 21.775C18.8071 22.5523 19.8808 22.9907 21.0007 23C21.986 23.0009 22.9366 22.6364 23.6687 21.977C23.7712 21.8906 23.8552 21.7846 23.9158 21.6651C23.9764 21.5457 24.0124 21.4152 24.0217 21.2816C24.0309 21.148 24.0132 21.0138 23.9697 20.8872C23.9261 20.7605 23.8575 20.6439 23.7679 20.5442C23.6784 20.4446 23.5698 20.3639 23.4485 20.3071C23.3272 20.2502 23.1957 20.2183 23.0618 20.2133C22.928 20.2082 22.7944 20.2301 22.6692 20.2776C22.544 20.3252 22.4305 20.3974 22.3337 20.49ZM3.00075 18C4.1206 17.9903 5.19418 17.5519 6.00075 16.775C6.80191 17.5602 7.87897 18 9.00075 18C10.1225 18 11.1996 17.5602 12.0007 16.775C12.8019 17.5602 13.879 18 15.0007 18C16.1225 18 17.1996 17.5602 18.0007 16.775C18.8071 17.5523 19.8808 17.9907 21.0007 18C21.986 18.0009 22.9366 17.6364 23.6687 16.977C23.7712 16.8906 23.8552 16.7846 23.9158 16.6651C23.9764 16.5457 24.0124 16.4152 24.0217 16.2816C24.0309 16.148 24.0132 16.0138 23.9697 15.8872C23.9261 15.7605 23.8575 15.6439 23.7679 15.5442C23.6784 15.4446 23.5698 15.3639 23.4485 15.3071C23.3272 15.2502 23.1957 15.2183 23.0618 15.2133C22.928 15.2082 22.7944 15.2301 22.6692 15.2776C22.544 15.3252 22.4295 15.3974 22.3327 15.49C21.967 15.8187 21.4925 16.0003 21.0007 16C20.5657 16.0007 20.1397 15.8751 19.7746 15.6385C19.4095 15.4019 19.1208 15.0644 18.9437 14.667C18.8747 14.4722 18.747 14.3037 18.5782 14.1844C18.4094 14.0652 18.2079 14.0012 18.0012 14.0012C17.7946 14.0012 17.593 14.0652 17.4243 14.1844C17.2555 14.3037 17.1278 14.4722 17.0587 14.667C16.8811 15.0641 16.5923 15.4014 16.2272 15.638C15.8621 15.8746 15.4363 16.0006 15.0012 16.0006C14.5662 16.0006 14.1404 15.8746 13.7753 15.638C13.4102 15.4014 13.1214 15.0641 12.9437 14.667C12.8747 14.4722 12.747 14.3037 12.5782 14.1844C12.4094 14.0652 12.2079 14.0012 12.0012 14.0012C11.7946 14.0012 11.593 14.0652 11.4243 14.1844C11.2555 14.3037 11.1278 14.4722 11.0587 14.667C10.8811 15.0641 10.5923 15.4014 10.2272 15.638C9.86209 15.8746 9.43632 16.0006 9.00125 16.0006C8.56617 16.0006 8.1404 15.8746 7.77531 15.638C7.41022 15.4014 7.12141 15.0641 6.94375 14.667C6.87469 14.4722 6.74699 14.3037 6.57822 14.1844C6.40945 14.0652 6.20788 14.0012 6.00125 14.0012C5.79461 14.0012 5.59305 14.0652 5.42427 14.1844C5.2555 14.3037 5.12781 14.4722 5.05875 14.667C4.88138 15.0644 4.59256 15.4019 4.22728 15.6385C3.862 15.8751 3.43595 16.0006 3.00075 16C2.50868 15.9994 2.03409 15.8175 1.66775 15.489C1.4697 15.316 1.21145 15.2279 0.948932 15.2439C0.686418 15.2599 0.440774 15.3787 0.265206 15.5745C0.0896379 15.7703 -0.00171899 16.0274 0.0109226 16.2901C0.0235642 16.5528 0.139186 16.7999 0.332746 16.978C1.06595 17.6355 2.01593 17.9994 3.00075 18ZM18.5007 8C18.9952 8 19.4785 7.85338 19.8897 7.57867C20.3008 7.30397 20.6212 6.91352 20.8104 6.45671C20.9997 5.99989 21.0492 5.49723 20.9527 5.01227C20.8562 4.52732 20.6181 4.08186 20.2685 3.73223C19.9189 3.3826 19.4734 3.1445 18.9885 3.04804C18.5035 2.95157 18.0009 3.00108 17.544 3.1903C17.0872 3.37952 16.6968 3.69995 16.4221 4.11107C16.1474 4.5222 16.0007 5.00555 16.0007 5.5C16.0007 6.16304 16.2641 6.79893 16.733 7.26777C17.2018 7.73661 17.8377 8 18.5007 8Z" fill="#1D1D2F"/>
</g>
<defs>
<clipPath id="clip0_0_2255">
<rect width="24" height="24" fill="white"/>
</clipPath>
</defs>
</svg>
