<svg width="24" height="25" viewBox="0 0 24 25" fill="none" xmlns="http://www.w3.org/2000/svg">
<path d="M8.28002 3.44901C8.91002 3.46817 9.52002 3.57817 10.111 3.77917H10.17C10.21 3.79817 10.24 3.81917 10.26 3.83817C10.481 3.90917 10.69 3.98917 10.89 4.09917L11.27 4.26917C11.42 4.34917 11.6 4.49817 11.7 4.55917C11.8 4.61817 11.91 4.67917 12 4.74817C13.111 3.89917 14.46 3.43917 15.85 3.44901C16.481 3.44901 17.111 3.53817 17.71 3.73917C21.401 4.93917 22.731 8.98917 21.62 12.5292C20.99 14.3382 19.96 15.9892 18.611 17.3382C16.68 19.2082 14.561 20.8682 12.28 22.2982L12.03 22.4492L11.77 22.2882C9.48102 20.8682 7.35002 19.2082 5.40102 17.3282C4.06102 15.9792 3.03002 14.3382 2.39002 12.5292C1.26002 8.98917 2.59002 4.93917 6.32102 3.71817C6.61102 3.61817 6.91002 3.54817 7.21002 3.50917H7.33002C7.61102 3.46817 7.89002 3.44901 8.17002 3.44901H8.28002ZM17.19 6.60917C16.78 6.46817 16.33 6.68917 16.18 7.10917C16.04 7.52917 16.26 7.98917 16.68 8.13817C17.321 8.37817 17.75 9.00917 17.75 9.70817V9.73917C17.731 9.96817 17.8 10.1892 17.94 10.3592C18.08 10.5292 18.29 10.6282 18.51 10.6492C18.92 10.6382 19.27 10.3092 19.3 9.88817V9.76917C19.33 8.36817 18.481 7.09917 17.19 6.60917Z" fill="#F26F55"/>
</svg>
