<svg width="24" height="25" viewBox="0 0 24 25" fill="none" xmlns="http://www.w3.org/2000/svg">
<path d="M4 12.3364C4 12.0115 4.25649 11.7474 4.57311 11.7474L6.97827 11.7474C7.36348 11.7474 7.68291 11.4186 7.68291 11.0221C7.68291 10.6159 7.36348 10.2968 6.97827 10.2968L4.57311 10.2968C4.25649 10.2968 4 10.0327 4 9.70682L4 6.55401C4 4.46504 5.64416 2.77258 7.67352 2.77258L10.0411 2.77258C10.229 2.77258 10.4075 2.84995 10.539 2.98535C10.6706 3.12075 10.7457 3.3045 10.7457 3.49792C10.7457 4.21359 11.3095 4.79386 11.9953 4.79386C12.6858 4.79386 13.2467 4.22036 13.2543 3.51146C13.258 3.11204 13.5286 2.77258 13.9166 2.77258L16.3265 2.77258C18.3549 2.77258 20 4.46504 20 6.55401L20 9.70682C20 10.0327 19.7435 10.2968 19.4269 10.2968L17.3975 10.2968C17.0029 10.2968 16.6929 10.6159 16.6929 11.0221C16.6929 11.4186 17.0029 11.7474 17.3975 11.7474L19.4269 11.7474C19.7435 11.7474 20 12.0115 20 12.3364L20 18.9912C20 21.0705 18.3558 22.7726 16.3265 22.7726L13.9166 22.7726C13.5286 22.7726 13.258 22.4331 13.2543 22.0337C13.2467 21.3238 12.6858 20.7513 11.9953 20.7513C11.3282 20.7513 10.8209 21.3122 10.8209 22.0472C10.8209 22.2407 10.7457 22.4244 10.6142 22.5598C10.4827 22.6952 10.3042 22.7726 10.1163 22.7726L7.68291 22.7726C5.65731 22.7726 4 21.0666 4 18.9815L4 12.3364ZM9.70288 11.0221C9.70288 11.4186 10.0223 11.7474 10.4075 11.7474L14.1656 11.7474C14.5508 11.7474 14.8702 11.4186 14.8702 11.0221C14.8702 10.6159 14.5508 10.2968 14.1656 10.2968L10.4075 10.2968C10.0223 10.2968 9.70288 10.6159 9.70288 11.0221Z" fill="#F26F55"/>
</svg>
